<svg xmlns="http://www.w3.org/2000/svg" fill="none" viewBox="0 0 24 24"><path fill="#788996" fill-rule="evenodd" d="M11.402 3.16 4.666 7.13A1.223 1.223 0 0 0 4 8.217v7.284a1.225 1.225 0 0 0 .638 1.072c.018.01.037.02.055.032l6.72 4.251a1.27 1.27 0 0 0 1.174 0l6.72-4.251.053-.031c.399-.22.64-.63.64-1.072v-7.29a1.225 1.225 0 0 0-.62-1.073 1.003 1.003 0 0 1-.162-.115L12.664 3.16a1.33 1.33 0 0 0-1.262 0Zm9.187 2.377a.999.999 0 0 0-.173-.128l-6.75-3.98a3.33 3.33 0 0 0-3.266 0L3.662 5.402A3.223 3.223 0 0 0 2 8.217v7.287a3.225 3.225 0 0 0 1.648 2.807l6.725 4.254.054.032a3.27 3.27 0 0 0 3.2-.032l6.726-4.255A3.224 3.224 0 0 0 22 15.502V8.221a3.225 3.225 0 0 0-1.411-2.684Zm-9.162 2.521a3 3 0 1 1 .57 5.942 1 1 0 1 1 .006-2 1 1 0 0 0 .457-1.891l-.002-.001a.98.98 0 0 0-1.195.24 1 1 0 0 1-1.526-1.293 2.98 2.98 0 0 1 1.69-.997ZM12 15a1 1 0 0 1 1 1v.01a1 1 0 1 1-2 0V16a1 1 0 0 1 1-1Z" clip-rule="evenodd"/></svg>
