<svg xmlns="http://www.w3.org/2000/svg" fill="none" viewBox="0 0 249 186"><ellipse cx="124.092" cy="93" fill="url(#a)" rx="102.08" ry="86.396"/><path fill="url(#b)" fill-rule="evenodd" d="m138.694 81.318.002 1.119 1.354-.002-.006-3.19h-.86l-2.303 1.368h.523l-1.69 1.37.85 1.063 2.13-1.728Zm-15.51 12.163 8.5-7.5-1.272 1.052-6.151 4.988-1.077 1.46ZM74.089 82.022l2.898-2.68 1.369.006 1.947.006.003 1.364-1.952-.03-.014.419-.021 2.031-1.354-.015.017-1.683-2.048 1.648-.845-1.066Zm45.095 13.959-4.242 2.61-.968.025-.038 1.409v.186l.003 1.608 1.354-.002-.003-1.521 2.819-3.287 1.075-1.028Zm-50.575-8.804-6.324 5.089-.846-1.066 6.325-5.089.845 1.066Zm17.99 13.29 6.223-.039.01 1.364-6.224.039-.01-1.364Zm-9.89 8.617.064-6.24 1.354.015-.064 6.24-1.354-.015Zm-15.004-8.459 6.223-.039.01 1.364-6.223.039-.01-1.364Zm-5.745-1.27-1.637 1.317 1.158-.007.033 1.487-2.187-.092.004 1.822-1.354.002-.034-3.142 3.171-2.453.846 1.066Zm20.622 20.209.063-6.24 1.354.015-.064 6.24-1.353-.015Zm63.55 22.468-4.298 3.333.761-1.588 1.789-1.743-1.375.001 2.175-.535-.366-.831-.004-1.825 1.354-.001.007 3.131.008.005-.008.009v.044h-.043Zm-63.678-9.988.064-6.24 1.353.016-.063 6.24-1.354-.016Zm54.536 17.734-6.426 4.914-.819-1.086 6.425-4.915.82 1.087Zm-54.135-9.442-.01 1.047-3.335 2.065.861 1.054 3.722-2.405 1.931-.002-.002-1.364-1.812.002-.001-.39.018-1.747-1.354-.016-.004.329h-.017l.003 1.427Zm40.465 19.184.819 1.087-2.721 2.779v.028h-.041l-3.981-.028v-1.407h2.668l.128-2.528 1.354-.002-.066 2.027 1.84-1.956Zm-56.185-5.82 6.188-5.126.86 1.054-6.188 5.126-.86-1.054Zm-7.684 7.511 1.496-1.386.86 1.054-1.424 1.235.881-.001.003 1.364-3.166.004-.006-3.19 1.354-.001.002.921Zm70.764-81.949 6.331-.006.003 1.364-6.332.006-.002-1.364Zm-6.332.007.003 1.364-6.332.007-.003-1.364 6.332-.007Zm-12.663.013.003 1.365-6.332.006-.003-1.364 6.332-.007Zm-12.663.014.002 1.364-6.331.007-.003-1.365 6.332-.006Zm-15.81 9.584 1.354-.001.013 6.379-1.354.001-.013-6.379Zm9.609 53.209-.003-1.364 6.332-.007.003 1.364-6.332.007Zm12.663-.014-.003-1.364 6.332-.006.003 1.364-6.332.006Zm12.664-.013-.003-1.364 6.331-.007.003 1.364-6.331.007Zm12.663-.013-.003-1.364 6.332-.007.002 1.364-6.331.007Zm15.809-9.585-1.354.001-.013-6.378 1.354-.002.013 6.379Zm-.026-12.757-1.354.001-.013-6.378 1.354-.002.013 6.379Zm-.026-12.757-1.354.001-.013-6.379 1.354-.001.013 6.379Zm-.027-12.758-1.353.002-.014-6.379 1.354-.001.013 6.379Zm-40.619 6.453 6.332-.007.003 1.364-6.332.007-.003-1.364Zm-18.995.02.003 1.364-6.331.006-.003-1.364 6.331-.006Zm-28.472 7.597 1.354-.001.013 6.379-1.354.001-.013-6.379Zm.026 12.758 1.354-.002.013 6.379-1.354.001-.013-6.378Zm.026 12.757 1.354-.002.013 6.379-1.354.001-.013-6.378Zm.026 12.757 1.354-.001.014 6.378-1.355.002-.013-6.379Zm9.53 16.937-.002-1.364 6.331-.007.003 1.364-6.331.007Zm12.664-.014-.003-1.364 6.332-.006.003 1.364-6.332.006Zm12.663-.013-.003-1.364 6.332-.007.003 1.364-6.332.007Zm12.663-.013-.002-1.364 6.331-.007.003 1.364-6.332.007Zm15.81-10.585-1.354.002-.013-6.379 1.354-.001.013 6.378Zm-.026-12.757-1.354.001-.013-6.378 1.353-.002.014 6.379Zm-.027-12.757-1.354.001-.013-6.379 1.354-.001.013 6.379Zm-.026-12.758-1.354.002-.013-6.379 1.354-.001.013 6.378Z" clip-rule="evenodd"/><path fill="#53CDA8" d="M96.468 107.935c2.404 0 4.333.659 5.789 1.976 1.479 1.294 2.219 3.085 2.219 5.373 0 2.264-.728 3.998-2.184 5.199-1.456 1.179-3.386 1.768-5.789 1.768l-.139 2.669h-4.263l-.174-5.893h1.56c2.01 0 3.56-.265 4.645-.797 1.086-.531 1.63-1.502 1.63-2.912 0-1.016-.301-1.825-.902-2.426-.578-.601-1.375-.901-2.392-.901-1.063 0-1.895.289-2.495.866-.578.578-.867 1.375-.867 2.392h-4.575c-.024-1.41.277-2.669.9-3.778.625-1.109 1.538-1.976 2.74-2.6 1.224-.624 2.657-.936 4.297-.936Zm-2.253 25.27c-.878 0-1.606-.266-2.184-.798-.554-.554-.831-1.236-.831-2.045 0-.808.277-1.479.831-2.01.578-.555 1.306-.832 2.184-.832.855 0 1.56.277 2.115.832.554.531.832 1.202.832 2.01 0 .809-.278 1.491-.832 2.045-.555.532-1.26.798-2.115.798Z"/><path fill="url(#c)" fill-rule="evenodd" d="m118.355 99.397 20.883-18.326 35.14.597V99.5l-56.023-.103Zm-5.001.741-.047.04.047.059v1.717h63.452l.005.052.063-.052h.051v-.041L200.684 81.5l1.173.056V17.654h-8.847l-54.336-.393-25.32 20.77V100.138Zm2.462-2.07v-57.47h22.385v38.655l-22.385 18.815Zm61.687-19.06h21.807V21.454L176.943 40.14l.56 38.868Zm19.699-58.797-22.354 17.83h-34.1V20.334l8.47-.122h47.984Zm-59.001 1.01v16.82h-20.124l20.124-16.82Zm59.582 60.336-20.301.106-.201 16.907 20.502-17.013Zm-23.405-40.958v38.41h-33.63v-38.41h33.63Z" clip-rule="evenodd"/><path fill="url(#d)" fill-rule="evenodd" d="m118.355 160.829 20.883-17.705 35.14.597v17.108h-56.023Zm-5.001.74-.047.04.047.06v1.717h63.452l.005.052.063-.052h.051v-.041l24.979-20.353-.047-.004V79.085h-8.847l-54.336-.393-25.32 20.77V161.569Zm2.462-2.069v-57.469h22.385v38.654L115.816 159.5Zm61.687-19.059h21.807V82.885L176.943 102l.56 38.441Zm19.699-58.799-22.354 17.831h-34.1V81.765l8.47-.123h47.984Zm-59.001 1.011v16.82h-20.124l20.124-16.82Zm59.582 60.957-20.301.107-.201 16.285 20.502-16.392Zm-23.405-41.579v38.41h-33.63v-38.41h33.63Z" clip-rule="evenodd"/><defs><linearGradient id="b" x1="145.722" x2="53.23" y1="161.317" y2="74.23" gradientUnits="userSpaceOnUse"><stop stop-color="#9A75E9"/><stop offset="1" stop-color="#85FBC2"/></linearGradient><linearGradient id="c" x1="113.305" x2="197.969" y1="102.005" y2="13.54" gradientUnits="userSpaceOnUse"><stop stop-color="#9A75E9"/><stop offset="1" stop-color="#85FBC2"/></linearGradient><linearGradient id="d" x1="113.305" x2="197.967" y1="163.437" y2="74.927" gradientUnits="userSpaceOnUse"><stop stop-color="#9A75E9"/><stop offset="1" stop-color="#85FBC2"/></linearGradient><radialGradient id="a" cx="0" cy="0" r="1" gradientTransform="matrix(-30.6573 86.39622 -98.84161 -35.0735 124.092 93)" gradientUnits="userSpaceOnUse"><stop stop-color="#24333E"/><stop offset="1" stop-color="#121B22" stop-opacity="0"/></radialGradient></defs></svg>
