<svg xmlns="http://www.w3.org/2000/svg" fill="none" viewBox="0 0 49 73"><path fill="#20303E" d="M.864 22.064c.256-6.848 2.496-12.128 6.72-15.84C11.808 2.512 17.536.656 24.768.656c4.8 0 8.896.832 12.288 2.496 3.456 1.664 6.048 3.936 7.776 6.816 1.792 2.88 2.688 6.112 2.688 9.696 0 4.224-1.056 7.68-3.168 10.368-2.112 2.624-4.576 4.416-7.392 5.376v.384c3.648 1.216 6.528 3.232 8.64 6.048 2.112 2.816 3.168 6.432 3.168 10.848 0 3.968-.928 7.488-2.784 10.56-1.792 3.008-4.448 5.376-7.968 7.104-3.456 1.728-7.584 2.592-12.384 2.592-7.68 0-13.824-1.888-18.432-5.664C2.656 63.504.256 57.808 0 50.192h15.936c.064 2.816.864 5.056 2.4 6.72 1.536 1.6 3.776 2.4 6.72 2.4 2.496 0 4.416-.704 5.76-2.112 1.408-1.472 2.112-3.392 2.112-5.76 0-3.072-.992-5.28-2.976-6.624-1.92-1.408-5.024-2.112-9.312-2.112h-3.072V29.36h3.072c3.264 0 5.888-.544 7.872-1.632 2.048-1.152 3.072-3.168 3.072-6.048 0-2.304-.64-4.096-1.92-5.376-1.28-1.28-3.04-1.92-5.28-1.92-2.432 0-4.256.736-5.472 2.208-1.152 1.472-1.824 3.296-2.016 5.472H.864Z"/></svg>
