<svg xmlns="http://www.w3.org/2000/svg" fill="none" viewBox="0 0 49 71"><path fill="#20303E" d="M.192 58.464c2.176-1.728 3.168-2.528 2.976-2.4 6.272-5.184 11.2-9.44 14.784-12.768 3.648-3.328 6.72-6.816 9.216-10.464 2.496-3.648 3.744-7.2 3.744-10.656 0-2.624-.608-4.672-1.824-6.144-1.216-1.472-3.04-2.208-5.472-2.208-2.432 0-4.352.928-5.76 2.784-1.344 1.792-2.016 4.352-2.016 7.68H0c.128-5.44 1.28-9.984 3.456-13.632 2.24-3.648 5.152-6.336 8.736-8.064C15.84.864 19.872 0 24.288 0c7.616 0 13.344 1.952 17.184 5.856 3.904 3.904 5.856 8.992 5.856 15.264 0 6.848-2.336 13.216-7.008 19.104-4.672 5.824-10.624 11.52-17.856 17.088h25.92v13.344H.192V58.464Z"/></svg>
