<svg  viewBox="0 0 765 482" fill="none" xmlns="http://www.w3.org/2000/svg">
<ellipse cx="383" cy="240.928" rx="342" ry="240.928" fill="url(#paint0_radial_7992_66292)"/>
<path d="M431.947 229.738L240.633 148.779L196.78 155.044L395.323 236.485M431.947 229.738L395.323 236.485M431.947 229.738L281.595 383.464L231.959 392.62L395.323 236.485" stroke="url(#paint1_linear_7992_66292)"/>
<path d="M196.298 155.044L183.769 157.453M183.769 157.453L147.626 164.2L343.76 248.532L377.493 239.858L183.769 157.453Z" stroke="url(#paint2_linear_7992_66292)"/>
<path d="M232.923 392.138L221.357 394.892M221.357 394.892L191.479 400.813L344.241 248.532L377.493 240.822L221.357 394.892Z" stroke="url(#paint3_linear_7992_66292)"/>
<path d="M466.162 245.641L434.357 253.351L410.262 277.928L446.404 268.772L466.162 245.641Z" stroke="url(#paint4_linear_7992_66292)"/>
<path d="M570.253 324.673L445.922 268.772L467.126 245.159L627.117 313.107L570.253 324.673Z" stroke="url(#paint5_linear_7992_66292)"/>
<path d="M539.411 332.865L410.262 278.892L446.404 268.772L570.252 324.672L539.411 332.865Z" stroke="url(#paint6_linear_7992_66292)"/>
<path d="M434.839 253.351L591.938 320.335" stroke="url(#paint7_linear_7992_66292)"/>
<path d="M429.056 185.403L391.95 194.077L425.201 206.125L461.343 198.896L429.056 185.403Z" stroke="url(#paint8_linear_7992_66292)"/>
<path d="M522.063 89.5052L486.884 97.2156L391.95 193.596L428.092 184.921L522.063 89.5052Z" stroke="url(#paint9_linear_7992_66292)"/>
<path d="M461.343 198.897L429.056 184.921L522.063 89.0234L575.553 79.8673L461.343 198.897Z" stroke="url(#paint10_linear_7992_66292)"/>
<path d="M424.719 206.125L544.23 85.6499" stroke="url(#paint11_linear_7992_66292)"/>
<path fill-rule="evenodd" clip-rule="evenodd" d="M595.218 195.218L611.717 177.277L642.914 173.801L644.846 188.839L595.218 195.218ZM590.872 196.438L590.834 196.478L590.883 196.525L591.077 198.035L647.287 190.811L647.297 190.856L647.347 190.803L647.392 190.797L647.387 190.762L667.216 170.026L667.174 170.028L659.954 113.855L652.117 114.862L603.939 120.703L583.855 141.843L583.857 141.853L583.857 141.855L590.872 196.438ZM592.819 194.339L586.326 143.821L606.156 141.272L610.523 175.251L592.819 194.339ZM645.312 170.561L664.63 168.079L658.127 117.485L640.425 136.459L645.312 170.561ZM656.12 116.633L638.332 134.852L608.124 138.734L606.123 123.168L613.612 122.096L656.12 116.633ZM603.967 124.238L605.867 139.024L588.04 141.315L603.967 124.238ZM663.635 171.038L645.663 173.444L647.325 187.782L663.635 171.038ZM638.204 137.153L642.543 170.917L612.752 174.746L608.413 140.982L638.204 137.153Z" fill="url(#paint12_linear_7992_66292)"/>
<path fill-rule="evenodd" clip-rule="evenodd" d="M128.751 339.078L138.881 330.554L155.928 330.842V339.078H128.751ZM126.324 339.434L126.301 339.453L126.324 339.482V340.309H157.107L157.109 340.333L157.14 340.309H157.164V340.289L169.282 330.491L169.259 330.489V299.727H164.968L138.608 299.538L126.324 309.536L126.324 309.542V309.543V339.434ZM127.519 338.438V310.773H138.378V329.38L127.519 338.438ZM157.445 329.263H168.024V301.556L157.173 310.552L157.445 329.263ZM167.001 300.958L156.157 309.542H139.614V301.017L143.723 300.958H167.001ZM138.378 301.444V309.542H128.615L138.378 301.444ZM167.283 330.788L157.435 330.84L157.337 338.679L167.283 330.788ZM155.928 310.773V329.263H139.614V310.773H155.928Z" fill="url(#paint13_linear_7992_66292)"/>
<path fill-rule="evenodd" clip-rule="evenodd" d="M59.8852 205.797L59.7017 206.73L58.5648 206.506L59.0879 203.847L61.7463 204.371L61.5226 205.507L61.0833 205.421L62.2801 206.841L61.3941 207.588L59.8852 205.797ZM70.9945 217.182L66.6373 212.012L65.7513 212.758L70.1085 217.929L70.9945 217.182ZM114.033 217.003L112.034 214.291L110.883 214.072L109.246 213.756L109.022 214.893L110.667 215.189L110.611 215.541L110.299 217.238L111.438 217.448L111.697 216.042L113.15 217.753L114.033 217.003ZM75.3517 222.352L76.8689 224.939L79.5417 225.483L79.3454 226.665L77.4512 226.455L77.1875 227.795L76.0505 227.571L76.3001 226.303L74.4657 223.099L75.3517 222.352ZM117.636 223.036L122.122 228.319L123.005 227.569L118.519 222.286L117.636 223.036ZM100.695 229.494L95.4742 228.438L95.2445 229.574L100.465 230.63L100.695 229.494ZM107.602 238.304L108.561 233.09L107.421 232.881L106.462 238.095L107.602 238.304ZM121.577 233.717L116.356 232.661L116.127 233.797L121.347 234.853L121.577 233.717ZM126.608 233.602L127.769 234.969L126.798 234.773L126.528 236.008L128.381 236.291L128.082 237.81L129.219 238.033L129.757 235.419L127.492 232.852L126.608 233.602ZM105.684 248.732L106.643 243.518L105.503 243.309L104.544 248.523L105.684 248.732ZM48.6615 257.023L50.4843 259.831L51.3489 259.059L50.1293 257.312L51.2842 257.539L51.5079 256.402L49.9864 256.102L50.2858 254.581L49.1489 254.357L48.6354 256.967L48.6276 256.97L48.633 256.979L48.6258 257.016L48.6615 257.023ZM103.766 259.16L104.725 253.946L103.585 253.737L102.626 258.951L103.766 259.16ZM55.0833 264.985L59.6823 270.139L60.5469 269.367L55.9479 264.213L55.0833 264.985ZM102.083 266.009L101.922 266.883L104.387 269.154L103.493 269.891L100.758 267.274L99.1357 266.955L99.3594 265.818L100.881 266.117L100.945 265.792L101.213 264.332L102.353 264.542L102.302 264.816L102.317 264.819L102.083 266.009ZM65.1458 274.521L64.2813 275.293L66.1153 278.058L66.1115 278.081L66.1457 278.088L69.4418 278.784L69.722 277.545L67.4808 277.107L67.7843 274.978L66.6473 274.754L66.3735 276.454L65.1458 274.521ZM113.118 279.736L108.752 274.445L107.859 275.182L112.224 280.474L113.118 279.736ZM118.515 286.429L117.483 285.027L116.589 285.765L117.585 287.029L116.845 286.883L116.621 288.02L119.28 288.543L119.803 285.885L118.666 285.661L118.515 286.429ZM72.38 206.463L67.0632 205.417L66.8394 206.554L72.1563 207.6L72.38 206.463ZM77.6968 207.509L77.4731 208.646L82.7899 209.692L83.0137 208.555L77.6968 207.509ZM88.3305 209.602L88.1068 210.739L93.4236 211.785L93.6473 210.648L88.3305 209.602ZM98.9641 211.694L98.7404 212.831L104.057 213.877L104.281 212.74L98.9641 211.694ZM110.687 222.285L109.55 222.061L108.504 227.378L109.641 227.602L110.687 222.285ZM93.8188 265.908L94.0426 264.772L88.7257 263.725L88.502 264.862L93.8188 265.908ZM83.1852 263.816L83.4089 262.679L78.0921 261.633L77.8684 262.77L83.1852 263.816ZM72.5515 261.724L72.7752 260.587L67.4584 259.541L67.2347 260.677L72.5515 261.724ZM61.9179 259.631L62.1416 258.494L56.8247 257.448L56.601 258.585L61.9179 259.631ZM50.1951 249.04L51.332 249.264L52.3782 243.947L51.2413 243.724L50.1951 249.04ZM52.2875 238.407L53.4245 238.63L54.4707 233.314L53.3338 233.09L52.2875 238.407ZM54.3799 227.773L55.5169 227.997L56.5631 222.68L55.4262 222.456L54.3799 227.773ZM56.4724 217.14L57.6093 217.363L58.6555 212.046L57.5186 211.823L56.4724 217.14ZM89.8657 227.528L84.5489 226.482L84.3252 227.619L89.642 228.665L89.8657 227.528ZM105.816 230.667L105.593 231.804L110.909 232.85L111.133 231.713L105.816 230.667ZM128.173 243.35L127.036 243.126L125.99 248.443L127.126 248.667L128.173 243.35ZM126.08 253.984L124.943 253.76L123.897 259.077L125.034 259.3L126.08 253.984ZM123.988 264.617L122.851 264.394L121.805 269.71L122.942 269.934L123.988 264.617ZM121.895 275.251L120.758 275.027L119.712 280.344L120.849 280.568L121.895 275.251ZM111.305 286.974L111.528 285.837L106.211 284.791L105.988 285.928L111.305 286.974ZM100.671 284.881L100.895 283.744L95.5778 282.698L95.3541 283.835L100.671 284.881ZM90.0372 282.789L90.2609 281.652L84.9441 280.606L84.7204 281.743L90.0372 282.789ZM79.4036 280.697L79.6273 279.56L74.3104 278.513L74.0867 279.65L79.4036 280.697ZM67.6808 270.106L68.8177 270.329L69.8639 265.013L68.727 264.789L67.6808 270.106ZM69.7733 259.472L70.9102 259.696L71.9564 254.379L70.8195 254.155L69.7733 259.472ZM71.8657 248.838L73.0026 249.062L74.0488 243.745L72.9119 243.522L71.8657 248.838ZM73.9581 238.205L75.0951 238.428L76.1412 233.112L75.0043 232.888L73.9581 238.205Z" fill="url(#paint14_linear_7992_66292)"/>
<defs>
<radialGradient id="paint0_radial_7992_66292" cx="0" cy="0" r="1" gradientUnits="userSpaceOnUse" gradientTransform="translate(383 240.928) rotate(113.089) scale(261.907 342.98)">
<stop stop-color="#24333E"/>
<stop offset="1" stop-color="#121B22" stop-opacity="0"/>
</radialGradient>
<linearGradient id="paint1_linear_7992_66292" x1="196.777" y1="392.619" x2="440.459" y2="157.605" gradientUnits="userSpaceOnUse">
<stop stop-color="#9A75E9"/>
<stop offset="1" stop-color="#85FBC2"/>
</linearGradient>
<linearGradient id="paint2_linear_7992_66292" x1="147.623" y1="248.532" x2="212.875" y2="88.0923" gradientUnits="userSpaceOnUse">
<stop stop-color="#9A75E9"/>
<stop offset="1" stop-color="#85FBC2"/>
</linearGradient>
<linearGradient id="paint3_linear_7992_66292" x1="191.476" y1="400.812" x2="349.668" y2="216.89" gradientUnits="userSpaceOnUse">
<stop stop-color="#9A75E9"/>
<stop offset="1" stop-color="#85FBC2"/>
</linearGradient>
<linearGradient id="paint4_linear_7992_66292" x1="410.261" y1="277.928" x2="438.228" y2="229.507" gradientUnits="userSpaceOnUse">
<stop stop-color="#9A75E9"/>
<stop offset="1" stop-color="#85FBC2"/>
</linearGradient>
<linearGradient id="paint5_linear_7992_66292" x1="445.92" y1="324.672" x2="504.437" y2="191.323" gradientUnits="userSpaceOnUse">
<stop stop-color="#9A75E9"/>
<stop offset="1" stop-color="#85FBC2"/>
</linearGradient>
<linearGradient id="paint6_linear_7992_66292" x1="410.259" y1="332.864" x2="454.509" y2="222.405" gradientUnits="userSpaceOnUse">
<stop stop-color="#9A75E9"/>
<stop offset="1" stop-color="#85FBC2"/>
</linearGradient>
<linearGradient id="paint7_linear_7992_66292" x1="434.836" y1="320.335" x2="483.17" y2="206.975" gradientUnits="userSpaceOnUse">
<stop stop-color="#9A75E9"/>
<stop offset="1" stop-color="#85FBC2"/>
</linearGradient>
<linearGradient id="paint8_linear_7992_66292" x1="391.949" y1="206.125" x2="403.311" y2="168.074" gradientUnits="userSpaceOnUse">
<stop stop-color="#9A75E9"/>
<stop offset="1" stop-color="#85FBC2"/>
</linearGradient>
<linearGradient id="paint9_linear_7992_66292" x1="391.948" y1="193.595" x2="493.5" y2="66.6547" gradientUnits="userSpaceOnUse">
<stop stop-color="#9A75E9"/>
<stop offset="1" stop-color="#85FBC2"/>
</linearGradient>
<linearGradient id="paint10_linear_7992_66292" x1="429.054" y1="198.896" x2="545.563" y2="55.4998" gradientUnits="userSpaceOnUse">
<stop stop-color="#9A75E9"/>
<stop offset="1" stop-color="#85FBC2"/>
</linearGradient>
<linearGradient id="paint11_linear_7992_66292" x1="424.717" y1="206.124" x2="545.188" y2="86.6161" gradientUnits="userSpaceOnUse">
<stop stop-color="#9A75E9"/>
<stop offset="1" stop-color="#85FBC2"/>
</linearGradient>
<linearGradient id="paint12_linear_7992_66292" x1="591.039" y1="198.085" x2="655.36" y2="110.145" gradientUnits="userSpaceOnUse">
<stop stop-color="#9A75E9"/>
<stop offset="1" stop-color="#85FBC2"/>
</linearGradient>
<linearGradient id="paint13_linear_7992_66292" x1="126.301" y1="340.333" x2="167.041" y2="297.41" gradientUnits="userSpaceOnUse">
<stop stop-color="#9A75E9"/>
<stop offset="1" stop-color="#85FBC2"/>
</linearGradient>
<linearGradient id="paint14_linear_7992_66292" x1="40.9989" y1="271.352" x2="132.384" y2="213.254" gradientUnits="userSpaceOnUse">
<stop stop-color="#9A75E9"/>
<stop offset="1" stop-color="#85FBC2"/>
</linearGradient>
</defs>
</svg>
