<svg xmlns="http://www.w3.org/2000/svg" fill="none" viewBox="0 0 31 31">
  <rect width="30.205" height="30.205" x=".398" y=".397" stroke="#20303E" stroke-width=".795" rx="3.577"/>
  <path fill="#788996" d="M9.539 20.27h12.718a.797.797 0 0 0 .794-.796.797.797 0 0 0-.794-.795H9.539a.797.797 0 0 0-.795.795c0 .438.357.795.795.795Zm0-3.975h12.718a.797.797 0 0 0 .794-.795.797.797 0 0 0-.794-.795H9.539a.797.797 0 0 0-.795.795c0 .437.357.795.795.795Zm-.795-4.77c0 .438.357.795.795.795h12.718a.797.797 0 0 0 .794-.794.797.797 0 0 0-.794-.795H9.539a.797.797 0 0 0-.795.795Z"/>
</svg>
