<svg  viewBox="0 0 98 98" fill="none" xmlns="http://www.w3.org/2000/svg">
<path fill-rule="evenodd" clip-rule="evenodd" d="M19.6001 23.8002C19.6001 21.4806 21.4805 19.6002 23.8001 19.6002H36.4001C38.7197 19.6002 40.6001 21.4806 40.6001 23.8002V36.4002C40.6001 38.7198 38.7197 40.6002 36.4001 40.6002H23.8001C21.4805 40.6002 19.6001 38.7198 19.6001 36.4002V23.8002ZM28.0001 32.2002V28.0002H32.2001V32.2002H28.0001Z" fill="#323E48"/>
<path fill-rule="evenodd" clip-rule="evenodd" d="M19.6001 61.6002C19.6001 59.2806 21.4805 57.4002 23.8001 57.4002H36.4001C38.7197 57.4002 40.6001 59.2806 40.6001 61.6002V74.2002C40.6001 76.5198 38.7197 78.4002 36.4001 78.4002H23.8001C21.4805 78.4002 19.6001 76.5198 19.6001 74.2002V61.6002ZM28.0001 70.0002V65.8002H32.2001V70.0002H28.0001Z" fill="#323E48"/>
<path fill-rule="evenodd" clip-rule="evenodd" d="M61.6001 19.6002C59.2805 19.6002 57.4001 21.4806 57.4001 23.8002V36.4002C57.4001 38.7198 59.2805 40.6002 61.6001 40.6002H74.2001C76.5197 40.6002 78.4001 38.7198 78.4001 36.4002V23.8002C78.4001 21.4806 76.5197 19.6002 74.2001 19.6002H61.6001ZM65.8001 28.0002V32.2002H70.0001V28.0002H65.8001Z" fill="#323E48"/>
<path d="M53.2001 23.8002C53.2001 21.4806 51.3197 19.6002 49.0001 19.6002C46.6805 19.6002 44.8001 21.4806 44.8001 23.8002V28.0002C44.8001 30.3198 46.6805 32.2002 49.0001 32.2002C51.3197 32.2002 53.2001 30.3198 53.2001 28.0002V23.8002Z" fill="#323E48"/>
<path d="M49.0001 36.4002C51.3197 36.4002 53.2001 38.2806 53.2001 40.6002V44.8002H61.6001C63.9197 44.8002 65.8001 46.6806 65.8001 49.0002C65.8001 51.3198 63.9197 53.2002 61.6001 53.2002H49.0001C46.6805 53.2002 44.8001 51.3198 44.8001 49.0002V40.6002C44.8001 38.2806 46.6805 36.4002 49.0001 36.4002Z" fill="#323E48"/>
<path d="M74.2001 44.8002C71.8805 44.8002 70.0001 46.6806 70.0001 49.0002C70.0001 51.3198 71.8805 53.2002 74.2001 53.2002C76.5197 53.2002 78.4001 51.3198 78.4001 49.0002C78.4001 46.6806 76.5197 44.8002 74.2001 44.8002Z" fill="#323E48"/>
<path d="M44.8001 61.6002C44.8001 59.2806 46.6805 57.4002 49.0001 57.4002H53.2001C55.5197 57.4002 57.4001 59.2806 57.4001 61.6002C57.4001 63.9198 55.5197 65.8002 53.2001 65.8002V74.2002C53.2001 76.5198 51.3197 78.4002 49.0001 78.4002C46.6805 78.4002 44.8001 76.5198 44.8001 74.2002V61.6002Z" fill="#323E48"/>
<path d="M36.4001 53.2002C38.7197 53.2002 40.6001 51.3198 40.6001 49.0002C40.6001 46.6806 38.7197 44.8002 36.4001 44.8002H23.8001C21.4805 44.8002 19.6001 46.6806 19.6001 49.0002C19.6001 51.3198 21.4805 53.2002 23.8001 53.2002H36.4001Z" fill="#323E48"/>
<path d="M78.4001 61.6002C78.4001 63.9198 76.5197 65.8002 74.2001 65.8002H65.8001C63.4805 65.8002 61.6001 63.9198 61.6001 61.6002C61.6001 59.2806 63.4805 57.4002 65.8001 57.4002H74.2001C76.5197 57.4002 78.4001 59.2806 78.4001 61.6002Z" fill="#323E48"/>
<path d="M74.2001 78.4002C76.5197 78.4002 78.4001 76.5198 78.4001 74.2002C78.4001 71.8806 76.5197 70.0002 74.2001 70.0002H61.6001C59.2805 70.0002 57.4001 71.8806 57.4001 74.2002C57.4001 76.5198 59.2805 78.4002 61.6001 78.4002H74.2001Z" fill="#323E48"/>
<path d="M78.597 92.8233C78.597 93.427 79.0864 93.9165 79.6902 93.9165H87.5701C91.0752 93.9165 93.9166 91.0751 93.9166 87.57V79.8283C93.9166 79.2246 93.4271 78.7352 92.8234 78.7352C92.2197 78.7352 91.7303 79.2246 91.7303 79.8283V87.57C91.7303 89.8676 89.8677 91.7301 87.5701 91.7301H79.6902C79.0864 91.7301 78.597 92.2196 78.597 92.8233ZM78.597 5.17628C78.597 5.78003 79.0865 6.26944 79.6902 6.26944H87.5701C89.8677 6.26944 91.7303 8.132 91.7303 10.4296V18.4478C91.7303 19.0515 92.2197 19.5409 92.8234 19.5409C93.4271 19.5409 93.9166 19.0515 93.9166 18.4478V10.4296C93.9166 6.92453 91.0752 4.08313 87.5701 4.08313H79.6902C79.0865 4.08313 78.597 4.57254 78.597 5.17628ZM19.4028 5.17628C19.4028 4.57255 18.9133 4.08313 18.3096 4.08313H10.4297C6.92464 4.08313 4.08324 6.92453 4.08324 10.4296V18.4478C4.08324 19.0515 4.57265 19.5409 5.17639 19.5409C5.78013 19.5409 6.26955 19.0515 6.26955 18.4478V10.4296C6.26955 8.132 8.1321 6.26944 10.4297 6.26944H18.3096C18.9133 6.26944 19.4028 5.78002 19.4028 5.17628ZM19.4028 92.8233C19.4028 92.2196 18.9133 91.7301 18.3096 91.7301H10.4297C8.1321 91.7301 6.26955 89.8676 6.26955 87.57V79.8283C6.26955 79.2246 5.78012 78.7352 5.17639 78.7352C4.57266 78.7352 4.08324 79.2246 4.08324 79.8283V87.57C4.08324 91.0751 6.92464 93.9165 10.4297 93.9165H18.3096C18.9133 93.9165 19.4028 93.427 19.4028 92.8233Z" fill="#323E48" stroke="#323E48" stroke-width="1.63333"/>
</svg>
