<svg  viewBox="0 0 69 70" fill="none" xmlns="http://www.w3.org/2000/svg">
<path d="M0.0336914 5.60003C0.0336914 2.89383 2.2275 0.700027 4.93369 0.700027H63.7337C66.4399 0.700027 68.6337 2.89383 68.6337 5.60003V15.4C68.6337 18.1062 66.4399 20.3 63.7337 20.3H4.93369C2.2275 20.3 0.0336914 18.1062 0.0336914 15.4V5.60003Z" fill="#323E48"/>
<path d="M0.0336914 35C0.0336914 32.2938 2.2275 30.1 4.93369 30.1H34.3337C37.0399 30.1 39.2337 32.2938 39.2337 35V64.4C39.2337 67.1062 37.0399 69.3 34.3337 69.3H4.93369C2.2275 69.3 0.0336914 67.1062 0.0336914 64.4V35Z" fill="#323E48"/>
<path d="M53.9337 30.1C51.2275 30.1 49.0337 32.2938 49.0337 35V64.4C49.0337 67.1062 51.2275 69.3 53.9337 69.3H63.7337C66.4399 69.3 68.6337 67.1062 68.6337 64.4V35C68.6337 32.2938 66.4399 30.1 63.7337 30.1H53.9337Z" fill="#323E48"/>
</svg>
